<svg width="228" height="44" viewBox="0 0 228 44" fill="none" xmlns="http://www.w3.org/2000/svg">
<rect width="228" height="44" rx="10" fill="black"/>
<rect x="2" y="2" width="224" height="40" rx="10" fill="white"/>
<path d="M65 2H216C221.523 2 226 6.47715 226 12V32C226 37.5228 221.523 42 216 42H65V2Z" fill="#C4C4C4"/>
<circle cx="34" cy="22" r="8" fill="#FF0A0A"/>
<path d="M100.561 27.1914H93.8836L92.614 31H88.5642L95.4451 12.5156H98.9744L105.893 31H101.844L100.561 27.1914ZM94.9119 24.1064H99.533L97.2097 17.1875L94.9119 24.1064ZM123.694 22.1768C123.694 23.9964 123.373 25.5918 122.729 26.9629C122.086 28.334 121.164 29.3919 119.962 30.1367C118.768 30.8815 117.397 31.2539 115.848 31.2539C114.317 31.2539 112.95 30.8857 111.748 30.1494C110.546 29.4131 109.615 28.3636 108.955 27.001C108.295 25.6299 107.96 24.0557 107.952 22.2783V21.3643C107.952 19.5446 108.278 17.945 108.93 16.5654C109.59 15.1774 110.516 14.1152 111.71 13.3789C112.912 12.6341 114.283 12.2617 115.823 12.2617C117.363 12.2617 118.73 12.6341 119.924 13.3789C121.125 14.1152 122.052 15.1774 122.704 16.5654C123.364 17.945 123.694 19.5404 123.694 21.3516V22.1768ZM119.835 21.3389C119.835 19.4007 119.488 17.9281 118.794 16.9209C118.1 15.9137 117.11 15.4102 115.823 15.4102C114.545 15.4102 113.559 15.9095 112.865 16.9082C112.171 17.8984 111.82 19.3542 111.811 21.2754V22.1768C111.811 24.0641 112.158 25.5283 112.852 26.5693C113.546 27.6104 114.545 28.1309 115.848 28.1309C117.126 28.1309 118.108 27.6315 118.794 26.6328C119.479 25.6257 119.826 24.1615 119.835 22.2402V21.3389ZM142.106 26.417L146.296 12.5156H150.536L144.1 31H140.126L133.715 12.5156H137.942L142.106 26.417ZM157.508 31H153.699V12.5156H157.508V31ZM169.05 26.417L173.239 12.5156H177.48L171.043 31H167.069L160.658 12.5156H164.886L169.05 26.417ZM195.407 22.1768C195.407 23.9964 195.086 25.5918 194.443 26.9629C193.799 28.334 192.877 29.3919 191.675 30.1367C190.482 30.8815 189.111 31.2539 187.562 31.2539C186.03 31.2539 184.663 30.8857 183.461 30.1494C182.259 29.4131 181.328 28.3636 180.668 27.001C180.008 25.6299 179.674 24.0557 179.665 22.2783V21.3643C179.665 19.5446 179.991 17.945 180.643 16.5654C181.303 15.1774 182.23 14.1152 183.423 13.3789C184.625 12.6341 185.996 12.2617 187.536 12.2617C189.077 12.2617 190.444 12.6341 191.637 13.3789C192.839 14.1152 193.766 15.1774 194.417 16.5654C195.077 17.945 195.407 19.5404 195.407 21.3516V22.1768ZM191.548 21.3389C191.548 19.4007 191.201 17.9281 190.507 16.9209C189.813 15.9137 188.823 15.4102 187.536 15.4102C186.258 15.4102 185.272 15.9095 184.578 16.9082C183.884 17.8984 183.533 19.3542 183.525 21.2754V22.1768C183.525 24.0641 183.872 25.5283 184.566 26.5693C185.26 27.6104 186.258 28.1309 187.562 28.1309C188.84 28.1309 189.822 27.6315 190.507 26.6328C191.193 25.6257 191.54 24.1615 191.548 22.2402V21.3389Z" fill="black"/>
</svg>
